<svg xmlns="http://www.w3.org/2000/svg" width="1600" height="900" viewBox="0 0 1600 900">
  <defs>
    <linearGradient id="bg" x1="0" y1="0" x2="1" y2="1">
      <stop offset="0%" stop-color="#0d1c2b"/>
      <stop offset="100%" stop-color="#173249"/>
    </linearGradient>
    <pattern id="grid" width="32" height="32" patternUnits="userSpaceOnUse">
      <path d="M 32 0 L 0 0 0 32" fill="none" stroke="#2c4f64" stroke-width="1"/>
    </pattern>
  </defs>

  <rect width="1600" height="900" fill="url(#bg)"/>
  <rect width="1600" height="900" fill="url(#grid)" opacity="0.35"/>

  <g opacity="0.9">
    <polygon points="720,90 1130,300 760,505 350,295" fill="#7dd36f" opacity="0.18"/>
    <polygon points="720,120 1090,305 760,475 390,290" fill="none" stroke="#ffe45e" stroke-width="6"/>
  </g>

  <g fill="#f58fa3" stroke="#90384b" stroke-width="4">
    <rect x="515" y="650" width="170" height="110" rx="8"/>
    <rect x="610" y="520" width="250" height="34" rx="6"/>
    <rect x="700" y="395" width="34" height="145" rx="6"/>
    <rect x="665" y="372" width="120" height="34" rx="6"/>
    <rect x="975" y="580" width="85" height="54" rx="6" fill="#bf73ff" stroke="#7141b8"/>
    <rect x="1050" y="230" width="220" height="110" rx="10" fill="#c56d43" stroke="#7d4828"/>
    <rect x="920" y="330" width="110" height="110" rx="8"/>
    <rect x="390" y="290" width="180" height="60" rx="6"/>
    <rect x="605" y="230" width="240" height="52" rx="6"/>
    <rect x="790" y="235" width="90" height="34" rx="6"/>
    <rect x="905" y="265" width="190" height="34" rx="6"/>
    <rect x="950" y="300" width="250" height="34" rx="6"/>
  </g>

  <g font-family="monospace" font-weight="700" fill="#f6fbff">
    <text x="598" y="716" font-size="32">A</text>
    <text x="742" y="542" font-size="26">E</text>
    <text x="718" y="455" font-size="26">F</text>
    <text x="1008" y="613" font-size="28">CID</text>
    <text x="953" y="380" font-size="24">CTA</text>
  </g>

  <g font-family="monospace" fill="#bfe8ff">
    <text x="110" y="120" font-size="34">CUCEIverse campus texture placeholder</text>
    <text x="110" y="170" font-size="24">Replace this file with your final pixel-art campus map or point VITE_CAMPUS_MAP_TEXTURE_URL to another asset.</text>
    <text x="110" y="210" font-size="22">The interactive isometric geometry remains active underneath this texture.</text>
  </g>
</svg>