<svg width="256" height="256" viewBox="0 0 256 256" fill="none" xmlns="http://www.w3.org/2000/svg">
  <defs>
    <linearGradient id="cvBg" x1="32" y1="24" x2="224" y2="232" gradientUnits="userSpaceOnUse">
      <stop stop-color="#0f172a"/>
      <stop offset="1" stop-color="#111827"/>
    </linearGradient>
    <linearGradient id="cvCore" x1="58" y1="42" x2="202" y2="214" gradientUnits="userSpaceOnUse">
      <stop stop-color="#60a5fa"/>
      <stop offset="1" stop-color="#2563eb"/>
    </linearGradient>
    <linearGradient id="cvAccent" x1="92" y1="36" x2="164" y2="220" gradientUnits="userSpaceOnUse">
      <stop stop-color="#f59e0b"/>
      <stop offset="1" stop-color="#f97316"/>
    </linearGradient>
  </defs>
  <rect x="18" y="18" width="220" height="220" rx="56" fill="url(#cvBg)"/>
  <path d="M128 38c-48.6 0-88 39.4-88 88s39.4 88 88 88 88-39.4 88-88-39.4-88-88-88Zm0 18c38.7 0 70 31.3 70 70s-31.3 70-70 70-70-31.3-70-70 31.3-70 70-70Z" fill="url(#cvCore)" opacity="0.95"/>
  <path d="M90 85c10.7-13.2 27.2-22 46-22 16.2 0 30.9 6.3 41.9 16.5l-13.7 13.7C156.8 86 148 82 138 82c-13.9 0-26 6.8-33.4 17.4S93 123.7 93 138c0 14.2 4.5 28.1 11.6 38.6 7.2 10.6 19.2 17.4 33.4 17.4 10 0 18.8-4 26.2-10.2l13.7 13.7c-11 10.2-25.7 16.5-41.9 16.5-18.8 0-35.3-8.8-46-22-11.9-14.8-19-34.6-19-53.8s7.1-39 19-53.8Z" fill="white" opacity="0.92"/>
  <path d="M81 66h24l23 36 23-36h24l-37.2 55.2v46.8h-19.6v-46.8L81 66Z" fill="url(#cvAccent)"/>
  <circle cx="180" cy="74" r="10" fill="#f8fafc" opacity="0.92"/>
  <circle cx="76" cy="182" r="8" fill="#38bdf8" opacity="0.9"/>
  <circle cx="178" cy="184" r="7" fill="#f59e0b" opacity="0.95"/>
</svg>