<svg width="256" height="256" viewBox="0 0 256 256" fill="none" xmlns="http://www.w3.org/2000/svg">
  <defs>
    <linearGradient id="cuceiBlue" x1="32" y1="24" x2="224" y2="232" gradientUnits="userSpaceOnUse">
      <stop stop-color="#1d4ed8"/>
      <stop offset="1" stop-color="#1e40af"/>
    </linearGradient>
    <linearGradient id="cuceiOrange" x1="72" y1="24" x2="184" y2="232" gradientUnits="userSpaceOnUse">
      <stop stop-color="#fb923c"/>
      <stop offset="1" stop-color="#f97316"/>
    </linearGradient>
  </defs>
  <path d="M76 34C47.6 48 34 76.5 34 109c0 35 19.1 60.6 50.8 76.5l17.1-29.4C80.1 145.3 69 129.8 69 109c0-18.7 8.9-35.3 23.6-46.1L76 34Z" fill="url(#cuceiBlue)"/>
  <path d="M180 34c28.4 14 42 42.5 42 75 0 35-19.1 60.6-50.8 76.5l-17.1-29.4C175.9 145.3 187 129.8 187 109c0-18.7-8.9-35.3-23.6-46.1L180 34Z" fill="url(#cuceiBlue)"/>
  <path d="M118 24h20v208h-20z" fill="url(#cuceiOrange)"/>
  <path d="M98 94c0-16.6 13.4-30 30-30s30 13.4 30 30-13.4 30-30 30-30-13.4-30-30Z" fill="url(#cuceiOrange)"/>
  <path d="M128 68c22.1 0 40 17.9 40 40s-17.9 40-40 40-40-17.9-40-40 17.9-40 40-40Zm0 16c-13.2 0-24 10.8-24 24s10.8 24 24 24 24-10.8 24-24-10.8-24-24-24Z" fill="#f8fafc" opacity="0.88"/>
  <path d="M70 160c20.4 19.3 35.4 28 58 28s37.6-8.7 58-28l14 24c-23.4 19.2-43.6 28-72 28s-48.6-8.8-72-28l14-24Z" fill="url(#cuceiBlue)"/>
</svg>